<?xml version="1.0" encoding="UTF-8"?>
<svg width="256" height="256" viewBox="0 0 256 256" fill="none" xmlns="http://www.w3.org/2000/svg">
  <rect width="256" height="256" rx="24" fill="#3498DB"/>
  <circle cx="128" cy="85" r="35" fill="#ECF0F1"/>
  <path d="M128 140C88 140 60 160 60 200V240H196V200C196 160 168 140 128 140Z" fill="#ECF0F1"/>
  <path d="M90 85C90 72.3 98.1 61.5 109.5 57C106.5 56.4 103.3 56 100 56C78.1 56 60 74.1 60 96C60 117.9 78.1 136 100 136C108.7 136 116.7 133.1 123 128.2C116.2 125.8 110.1 121.9 105.5 116.5C96 110.7 90 98.8 90 85Z" fill="#F39C12"/>
  <path d="M166 85C166 98.8 160 110.7 150.5 116.5C145.9 121.9 139.8 125.8 133 128.2C139.3 133.1 147.3 136 156 136C177.9 136 196 117.9 196 96C196 74.1 177.9 56 156 56C152.7 56 149.5 56.4 146.5 57C157.9 61.5 166 72.3 166 85Z" fill="#F39C12"/>
  <path d="M90 170H166V190C166 190 138 175 128 175C118 175 90 190 90 190V170Z" fill="#F39C12"/>
  <path d="M128 112C143.464 112 156 99.464 156 84C156 68.536 143.464 56 128 56C112.536 56 100 68.536 100 84C100 99.464 112.536 112 128 112Z" fill="#F39C12"/>
</svg> 